<svg xmlns="http://www.w3.org/2000/svg" xmlns:svg="http://www.w3.org/2000/svg" id="svg10943" width="16" height="16" version="1.1" viewBox="0 0 16 16"><defs id="defs10945"><filter id="filter10516" width="1.151" height="1.151" x="-.076" y="-.076" color-interpolation-filters="sRGB"><feGaussianBlur id="feGaussianBlur10518" stdDeviation="1.89"/></filter></defs><metadata id="metadata10948"/><g id="layer5" display="inline" transform="translate(-37,-37.000027)"><rect id="rect11556" width="16" height="16" x="37" y="37" fill="#000" fill-opacity="1" fill-rule="evenodd" stroke="none" stroke-dasharray="none" stroke-linecap="square" stroke-miterlimit="4" stroke-opacity="1" stroke-width=".178" display="inline" opacity="1" ry="0"/></g><g id="layer1" display="inline" transform="translate(-692,-301.50507)"><g id="g5097" display="inline" filter="url(#filter10516)" opacity="1" transform="matrix(0.17777778,0,0,0.17777778,672.44444,144.64068)"><path id="path5101" fill="none" fill-opacity="1" fill-rule="evenodd" stroke="#000" stroke-dasharray="none" stroke-linecap="square" stroke-miterlimit="4" stroke-opacity="1" stroke-width="4" d="M 165.6066,937.96878 A 15,15 0 0 1 155,942.36218 15,15 0 0 1 144.3934,937.96878" opacity="1"/><circle id="circle5099" cx="155" cy="927.362" r="30" fill="none" fill-opacity="1" fill-rule="evenodd" stroke="#000" stroke-dasharray="none" stroke-linecap="square" stroke-miterlimit="4" stroke-opacity="1" stroke-width="4" opacity="1"/><rect id="rect5103" width="4" height="11" x="141" y="913.362" fill="#000" fill-opacity="1" fill-rule="evenodd" stroke="none" stroke-dasharray="none" stroke-linecap="square" stroke-miterlimit="4" stroke-opacity="1" stroke-width="4" opacity="1"/><rect id="rect5105" width="4" height="11" x="165" y="913.362" fill="#000" fill-opacity="1" fill-rule="evenodd" stroke="none" stroke-dasharray="none" stroke-linecap="square" stroke-miterlimit="4" stroke-opacity="1" stroke-width="4" opacity="1"/></g><g id="g5035" display="inline" transform="matrix(0.17777778,0,0,0.17777778,672.44444,144.64068)"><circle id="path4170" cx="155" cy="927.362" r="30" fill="none" fill-opacity="1" fill-rule="evenodd" stroke="#999" stroke-dasharray="none" stroke-linecap="square" stroke-miterlimit="4" stroke-opacity="1" stroke-width="4" opacity="1"/><path id="path4172" fill="none" fill-opacity="1" fill-rule="evenodd" stroke="#999" stroke-dasharray="none" stroke-linecap="square" stroke-miterlimit="4" stroke-opacity="1" stroke-width="4" d="M 165.6066,937.96878 A 15,15 0 0 1 155,942.36218 15,15 0 0 1 144.3934,937.96878" opacity="1"/><rect id="rect4174" width="4" height="11" x="141" y="913.362" fill="#999" fill-opacity="1" fill-rule="evenodd" stroke="none" stroke-dasharray="none" stroke-linecap="square" stroke-miterlimit="4" stroke-opacity="1" stroke-width="4" opacity="1"/><rect id="rect4176" width="4" height="11" x="165" y="913.362" fill="#999" fill-opacity="1" fill-rule="evenodd" stroke="none" stroke-dasharray="none" stroke-linecap="square" stroke-miterlimit="4" stroke-opacity="1" stroke-width="4" opacity="1"/></g></g></svg>