<svg xmlns="http://www.w3.org/2000/svg" xmlns:svg="http://www.w3.org/2000/svg" id="svg4492" width="32" height="32" version="1.1" viewBox="0 0 32 32"><metadata id="metadata4489"/><g id="layer1" transform="translate(0,-288.53334)"><path id="path5082" fill="#fcfcfc" fill-opacity="1" stroke="none" stroke-dasharray="none" stroke-dashoffset="0" stroke-linecap="round" stroke-linejoin="round" stroke-miterlimit="4" stroke-opacity="1" stroke-width="24" d="m 19,304.53334 -5,-3 v 6 z m -3,-6 a 6,6 0 0 0 -6,6 6,6 0 0 0 6,6 6,6 0 0 0 6,-6 6,6 0 0 0 -6,-6 z m 0,1 a 5,5 0 0 1 5,5 5,5 0 0 1 -5,5 5,5 0 0 1 -5,-5 5,5 0 0 1 5,-5 z m 11,12 h -2 v 2 h 2 z m 0,-4 h -2 v 2 h 2 z m 0,-4 h -2 v 2 h 2 z m 0,-4 h -2 v 2 h 2 z m 0,-4 h -2 v 2 h 2 z m -23,16 v 2 h 2 v -2 z m 0,-4 v 2 h 2 v -2 z m 0,-4 v 2 h 2 v -2 z m 0,-4 v 2 h 2 v -2 z m 0,-4 v 2 h 2 v -2 z m -2,-2 v 22 h 27 v -22 z m 1,1 h 25 v 20 H 3 Z" opacity="1"/></g></svg>